# xmcd CD database file
#
# Track frame offsets:
#	150
#	15532
#	30085
#	43700
#	55895
#	70137
#	84897
#	98030
#	113365
#	127777
#	139907
#	153920
#	167155
#	181037
#
# Disc length: 2609 seconds
#
# Revision: 0
# Processed by: cddbd v1.4PL0 Copyright (c) Steve Scherf et al.
# Submitted via: CDex 1.51
#
DISCID=990a2f0e
DTITLE=Various Artist - City, Howcome, Jive
DYEAR=2000
DGENRE=Jazz
TTITLE0=Friendless Blues (Big Bill Broonzy) 
TTITLE1=Kingfish Blues (Tampa Red) 
TTITLE2=Early In the Morning (Sonny Boy Williamson) 
TTITLE3=Key To The Highway (Jazz Gillum) 
TTITLE4=The Chicken And The Worm (Teddy Bunn And Spencer Williams) 
TTITLE5=Pine Top's Boogie Woogie (Pine Top Smith) 
TTITLE6=Southern Rag (Blind Blake) 
TTITLE7=Back To The Woods Blues (Charlie Spand) 
TTITLE8=Ma Rainey's Black Bottom (Ma Rainey) 
TTITLE9=Got The Blues For The West End (Lonnie Johnson) 
TTITLE10=Tough Lick (Robert Lee McCoy) 
TTITLE11=That's All Right (Arthur 'Big Boy" Crudup) 
TTITLE12=Oh Red ! (State Street Swingers) 
TTITLE13=The Darty Dozen (Speckled Red) 
EXTD=YEAR: 2000
EXTT0=
EXTT1=
EXTT2=
EXTT3=
EXTT4=
EXTT5=
EXTT6=
EXTT7=
EXTT8=
EXTT9=
EXTT10=
EXTT11=
EXTT12=
EXTT13=
PLAYORDER=
